<?xml version="1.0" encoding="UTF-8" standalone="no"?>
<!-- Uploaded to: SVG Repo, www.svgrepo.com, Generator: SVG Repo Mixer Tools -->

<svg
   width="800px"
   height="800px"
   viewBox="0 0 16 16"
   fill="none"
   version="1.1"
   id="svg1"
   sodipodi:docname="logo-dark.svg"
   inkscape:version="1.4 (e7c3feb1, 2024-10-09)"
   xmlns:inkscape="http://www.inkscape.org/namespaces/inkscape"
   xmlns:sodipodi="http://sodipodi.sourceforge.net/DTD/sodipodi-0.dtd"
   xmlns:xlink="http://www.w3.org/1999/xlink"
   xmlns="http://www.w3.org/2000/svg"
   xmlns:svg="http://www.w3.org/2000/svg">
  <defs
     id="defs1">
    <color-profile
       name="SMPTE-RP-431-2-2007-DCI-P3"
       xlink:href="file:///System/Library/ColorSync/Profiles/DCI(P3)%20RGB.icc"
       id="color-profile2" />
  </defs>
  <sodipodi:namedview
     id="namedview1"
     pagecolor="#000000"
     bordercolor="#000000"
     borderopacity="0.25"
     inkscape:showpageshadow="2"
     inkscape:pageopacity="0.0"
     inkscape:pagecheckerboard="0"
     inkscape:deskcolor="#000000"
     inkscape:zoom="0.21449863"
     inkscape:cx="582.75432"
     inkscape:cy="128.20595"
     inkscape:window-width="1440"
     inkscape:window-height="826"
     inkscape:window-x="0"
     inkscape:window-y="34"
     inkscape:window-maximized="0"
     inkscape:current-layer="svg1" />
  <path
     d="M 11,3 C 11,4.30622 10.1652,5.41746 9,5.82929 V 13.917 C 11.5125,13.4955 13.4955,11.5125 13.917,9 H 12 V 7 h 4 v 1 c 0,4.4183 -3.5817,8 -8,8 C 3.58172,16 0,12.4183 0,8 V 7 H 4 V 9 H 2.08296 C 2.50448,11.5125 4.48749,13.4955 7,13.917 V 5.82929 C 5.83481,5.41746 5,4.30622 5,3 5,1.34315 6.34315,0 8,0 c 1.65685,0 3,1.34315 3,3 z"
     fill="#000000"
     id="path1"
     style="fill:#ffffff"
     sodipodi:nodetypes="sccccccsssccccccsss" />
</svg>
